/* XPM */
static char *dummy[]={
"50 50 2 1",
"# c #000000",
". c #ffffff",
"..................................................",
"..................................................",
"..........#..........................#............",
"...........##.......................#.............",
".............##...................##..............",
"...............###################................",
"........................##........................",
"........................##........................",
"........................##........................",
"........................##........................",
"........................##........................",
"........................##........................",
"........................##........................",
"........................##........................",
"........................##........................",
"........................##........................",
"........................##........................",
"........................##........................",
"........................##........................",
"........................##........................",
"........................##........................",
"........................##........................",
"........................##........................",
"........................##........................",
"........................##........................",
"........................##........................",
"........................##........................",
"........................##........................",
"........................##........................",
"........................##........................",
"........................##........................",
"........................##........................",
"........................##........................",
"........................##........................",
"........................##........................",
"........................##........................",
"........................##........................",
"........................##........................",
"........................##........................",
"........................##........................",
"........................##........................",
"........................##........................",
"........................##........................",
"...............###################................",
".............##...................##..............",
"...........##.......................#.............",
"..........#..........................#............",
"..................................................",
"..................................................",
".................................................."};
